# xmcd
#
# Track frame offsets: 
#        150
#        29443
#        54910
#        69591
#        83991
#        94191
#        110864
#        128115
#        139065
#        175317
#        196140
#        239599
#
# Disc length: 3546 seconds
#
# Revision: 0
# Processed by: cddbd v1.5.1PL0 Copyright (c) Steve Scherf et al.
# Submitted via: ExactAudioCopy v0.95a2
#
DISCID=ab0dd80c
DTITLE=Stick In Mind - ...Signeed
DYEAR=2003
DGENRE=Blues
TTITLE0=Spirit of...
TTITLE1=Groove me
TTITLE2=Joseph
TTITLE3=1832.
TTITLE4=Ruby
TTITLE5=Summersong
TTITLE6=Smiley
TTITLE7=Rambling kids
TTITLE8=Peacock or Magpie
TTITLE9=Bondage in the 20th century
TTITLE10=Crying Mama
TTITLE11=Hompage Special
EXTD=
EXTT0=
EXTT1=
EXTT2=
EXTT3=
EXTT4=
EXTT5=
EXTT6=
EXTT7=
EXTT8=
EXTT9=
EXTT10=
EXTT11=
PLAYORDER=
